<?xml version="1.0" encoding="UTF-8" standalone="no"?>
<!DOCTYPE svg PUBLIC "-//W3C//DTD SVG 1.1//EN"
 "http://www.w3.org/Graphics/SVG/1.1/DTD/svg11.dtd">
<!-- Generated by graphviz version 2.38.0 (20140413.2041)
 -->
<!-- Title: G Pages: 1 -->
<svg width="279pt" height="132pt"
 viewBox="0.00 0.00 278.89 132.00" xmlns="http://www.w3.org/2000/svg" xmlns:xlink="http://www.w3.org/1999/xlink">
<g id="graph0" class="graph" transform="scale(1 1) rotate(0) translate(4 128)">
<title>G</title>
<polygon fill="white" stroke="none" points="-4,4 -4,-128 274.889,-128 274.889,4 -4,4"/>
<g id="clust1" class="cluster"><title>cluster_Global</title>
<path fill="none" stroke="gray" d="M188.889,-8C188.889,-8 250.889,-8 250.889,-8 256.889,-8 262.889,-14 262.889,-20 262.889,-20 262.889,-104 262.889,-104 262.889,-110 256.889,-116 250.889,-116 250.889,-116 188.889,-116 188.889,-116 182.889,-116 176.889,-110 176.889,-104 176.889,-104 176.889,-20 176.889,-20 176.889,-14 182.889,-8 188.889,-8"/>
<text text-anchor="middle" x="219.889" y="-103.2" font-family="Times New Roman,serif" font-size="11.00" fill="gray">Global</text>
</g>
<g id="clust2" class="cluster"><title>cluster_\Twister</title>
<path fill="none" stroke="gray" d="M196.889,-16C196.889,-16 242.889,-16 242.889,-16 248.889,-16 254.889,-22 254.889,-28 254.889,-28 254.889,-76 254.889,-76 254.889,-82 248.889,-88 242.889,-88 242.889,-88 196.889,-88 196.889,-88 190.889,-88 184.889,-82 184.889,-76 184.889,-76 184.889,-28 184.889,-28 184.889,-22 190.889,-16 196.889,-16"/>
<text text-anchor="middle" x="219.889" y="-75.2" font-family="Times New Roman,serif" font-size="11.00" fill="gray">Twister</text>
</g>
<!-- \\Twister\\Sql -->
<g id="node1" class="node"><title>\\Twister\\Sql</title>
<polygon fill="none" stroke="black" points="246.889,-60 192.889,-60 192.889,-24 246.889,-24 246.889,-60"/>
<text text-anchor="middle" x="219.889" y="-39.2" font-family="Courier,monospace" font-size="11.00">Sql</text>
</g>
<!-- \\ArrayAccess -->
<g id="node2" class="node"><title>\\ArrayAccess</title>
<ellipse fill="none" stroke="black" cx="60.4446" cy="-42" rx="60.3893" ry="18"/>
<text text-anchor="middle" x="60.4446" y="-38.3" font-family="Times New Roman,serif" font-size="14.00" fill="gray">\ArrayAccess</text>
</g>
<!-- \\Twister\\Sql&#45;&gt;\\ArrayAccess -->
<g id="edge1" class="edge"><title>\\Twister\\Sql&#45;&gt;\\ArrayAccess</title>
<path fill="none" stroke="black" stroke-dasharray="1,5" d="M192.537,-42C175.684,-42 152.971,-42 131.188,-42"/>
<polygon fill="none" stroke="black" points="130.935,-38.5001 120.935,-42 130.935,-45.5001 130.935,-38.5001"/>
</g>
</g>
</svg>
